<svg id="Capa_1" data-name="Capa 1" xmlns="http://www.w3.org/2000/svg" viewBox="0 0 792 612"><defs><style>.cls-1{fill:#fff;}.cls-2{fill:#646464;}.cls-3{fill:#2e92ff;}</style></defs><path class="cls-1" d="M595.65,351.56l0-40.32h0s1.21-7.83-7.88-7.83-7.42,7.83-7.42,7.83v-7.83s-.6-6.48-8.17-6.48-7.57,6.48-7.57,6.48v-6.48s-1.06-6.89-7.88-6.74-7.11,6.74-7.11,6.74V263.54s-1.06-7-8.33-7.11-7.73,7.11-7.73,7.11V338l-11.58-11.58s-4.62-3.71-9.77.83-.9,10.3-.9,10.3l25.43,25.59s5.76,7.87,17.72,6.66h25.44a16.74,16.74,0,0,0,10.6-4.39,17.93,17.93,0,0,0,5.22-10.94A15.6,15.6,0,0,0,595.65,351.56Z"/><path class="cls-2" d="M551.91,372a21.32,21.32,0,0,1-16.71-7.46L509.85,339a2.11,2.11,0,0,1-.19-.23c-1.84-2.49-4-8.41,1.19-12.95s10.27-2.54,12.32-.89a1.07,1.07,0,0,1,.16.14l8.2,8.2V263.55c.21-3.3,2.46-9.2,9.75-9.1a10.38,10.38,0,0,1,10.24,8.8,1.53,1.53,0,0,1,0,.3v26.14a9.38,9.38,0,0,1,5.09-1.48h.26c6.4,0,9,5.2,9.57,8.18a10.48,10.48,0,0,1,5.66-1.44c6.94,0,9.54,4.73,10.07,7.69a11.38,11.38,0,0,1,5.52-1.22c3.5,0,6.16,1,7.9,3.06a9.44,9.44,0,0,1,2,6.88l0,40.1a18.23,18.23,0,0,1,0,3.22,20.07,20.07,0,0,1-5.85,12.22,19,19,0,0,1-11.87,4.92H554.51A26,26,0,0,1,551.91,372Zm-39.13-35.64,25.32,25.47a2.2,2.2,0,0,1,.2.23c.2.28,5.29,6.94,15.91,5.86h25.64A14.88,14.88,0,0,0,589.1,364a16.1,16.1,0,0,0,4.6-9.66,14,14,0,0,0,0-2.59c0-.06,0-.13,0-.19l0-40.32a1.51,1.51,0,0,1,0-.3,5.48,5.48,0,0,0-1-3.9c-1-1.1-2.59-1.65-4.87-1.65s-3.81.53-4.67,1.58a3.91,3.91,0,0,0-.77,1.69v2.45c0,.05,0,.09,0,.13v9.84a2,2,0,1,1-4,0v-9.67a10.43,10.43,0,0,1,0-3.08v-4.8c-.1-.75-.91-4.62-6.19-4.62-2.39,0-4,.76-4.92,2.26a5.27,5.27,0,0,0-.67,2.23v17.38a2,2,0,1,1-4,0V303.41h0v-6.29c-.18-.89-1.23-4.94-5.69-4.94h-.16a5,5,0,0,0-5.18,4.8v24.1a2,2,0,1,1-4,0V263.72a6.4,6.4,0,0,0-6.38-5.31H541c-4.88,0-5.46,4.38-5.53,5.27V338a2,2,0,0,1-3.39,1.4L520.63,328c-.57-.41-3.61-2.32-7.15.82S512.25,335.53,512.78,336.31Z"/><path class="cls-3" d="M265.84,300.05H217V186.8h44q18.64,0,28.4,8.82a29,29,0,0,1,9.74,22.44,26.6,26.6,0,0,1-4.7,15.62,23,23,0,0,1-12.27,9.07q19.67,5.9,19.66,26.55,0,13.45-9.66,22.1T265.84,300.05Zm-9.24-92.58H242.82v25.37h9.58q10.08,0,15.21-3.7a11.47,11.47,0,0,0,5.12-9.74Q272.73,207.47,256.6,207.47Zm0,45.7H242.82v26.21h13.61q19.15,0,19.16-13.1T256.6,253.17Z"/><path class="cls-3" d="M370.18,300.05H344.31v-41.5L305.66,186.8h30.25l6.89,16.47q5.37,12.76,8.9,21.84t4.54,11.76l.84,2.69q1.68-7.56,14.78-36.29l7.4-16.47h30.07l-39.15,71.58Z"/><path class="cls-3" d="M488.64,300.05h-70.4V186.8H488v20.67H444.28v25.71h39v20.5h-39v25.7h44.36Z"/><path class="cls-2" d="M235.18,372.71H215.93v-63.6h18.88q14.06,0,23.07,8.72t9,22.61q0,13.77-8.35,23T235.18,372.71Zm-.47-56.81h-11V366h11.42q11.79,0,17.84-7.31t6-18.26A24.33,24.33,0,0,0,252.22,323Q245.47,315.9,234.71,315.9Z"/><path class="cls-2" d="M311.43,372.71H276v-63.6h35v6.7H283.59V337.6h24.16v6.71H283.59V366h27.84Z"/><path class="cls-2" d="M367.3,348.55q0,12.27-6.18,18.59t-17.22,6.32q-10.86,0-17-6.18t-6.13-18v-40.2h7.64v40.1q0,8.78,4.2,12.93t11.28,4.15q15.75,0,15.75-17.55V309.11h7.65Z"/><path class="cls-2" d="M398.63,372.71H379.38v-63.6h18.87q14.06,0,23.07,8.72t9,22.61q0,13.77-8.35,23T398.63,372.71Zm-.48-56.81h-11V366h11.42q11.81,0,17.84-7.31t6-18.26A24.33,24.33,0,0,0,415.66,323Q408.91,315.9,398.15,315.9Z"/><path class="cls-2" d="M443.64,372.71h-8.21l22.17-63.6h10.57l21.8,63.6h-8.21L476.19,356H449.3Zm9.06-26.8-1.23,3.59H474l-1.23-3.69-9.91-30.57Q461.77,319.3,452.7,345.91Z"/><rect class="cls-3" x="195.01" y="345.15" width="304.52" height="6.9" transform="translate(-23.65 25.28) rotate(-4.03)"/><polygon class="cls-2" points="524.62 207.17 597.71 207.17 597.71 280.27 551.55 280.27 551.55 276.07 593.51 276.07 593.51 211.51 528.82 211.51 528.82 276.07 531.53 276.07 531.53 280.27 524.62 280.27 524.62 207.17"/><polygon class="cls-3" points="561.74 269.9 533.29 217.17 550.05 217.17 561.79 246.41 610.14 133.17 610.14 185.82 561.74 269.9"/></svg>